<svg width="24" height="17" viewBox="0 0 24 17" fill="none" xmlns="http://www.w3.org/2000/svg">
<g clip-path="url(#clip0_88_472)">
<path d="M0.278198 4.82591C0.278198 4.20407 0.701318 3.86877 1.54756 3.82L4.8085 3.83829C5.02736 3.83829 5.17326 3.92973 5.24621 4.11263C5.58179 5.0271 5.95749 5.81659 6.37332 6.48111C6.78914 7.14562 7.33263 7.91073 8.00379 8.77643C8.06215 8.88616 8.15699 8.94103 8.2883 8.94103C8.39043 8.94103 8.47068 8.89835 8.52904 8.813L8.5947 8.61182L8.61658 5.44775C8.61658 5.22828 8.55457 5.08197 8.43056 5.00881C8.30654 4.93565 8.07674 4.88078 7.74116 4.8442C7.47853 4.80762 7.34722 4.6735 7.34722 4.44184C7.34722 4.39307 7.35452 4.35649 7.36911 4.3321C7.6755 3.53956 8.55093 3.14329 9.99537 3.14329L11.221 3.125C11.7754 3.125 12.235 3.24083 12.5997 3.4725C12.9645 3.70416 13.1469 4.06995 13.1469 4.56986V8.72156C13.249 8.78252 13.3439 8.813 13.4314 8.813C13.6503 8.813 13.8399 8.70327 14.0004 8.48379C15.6054 6.60608 16.4735 5.35021 16.6048 4.71618C16.6048 4.70399 16.6194 4.6735 16.6486 4.62473C16.7507 4.44184 16.9185 4.28333 17.1519 4.14921C17.3854 4.01508 17.5896 3.92364 17.7647 3.87487C17.8231 3.85048 17.8887 3.83829 17.9617 3.83829H21.354L21.5728 3.85658C21.8646 3.85658 22.0908 3.97241 22.2513 4.20407C22.3096 4.27723 22.3497 4.35649 22.3716 4.44184C22.3935 4.52719 22.4081 4.61254 22.4154 4.69789C22.4227 4.78324 22.4263 4.83201 22.4263 4.8442V4.97223C22.3242 5.47214 22.0652 6.00558 21.6494 6.57255C21.2336 7.13952 20.7047 7.75222 20.0627 8.41064C19.4207 9.06906 19.0195 9.5019 18.859 9.70918C18.7277 9.8555 18.662 9.98962 18.662 10.1116C18.662 10.2091 18.7204 10.3188 18.8371 10.4408L22.0324 13.806C22.2075 14.0011 22.295 14.2145 22.295 14.4461C22.295 14.7266 22.1637 14.9582 21.9011 15.1411C21.6385 15.324 21.3248 15.4277 20.96 15.4521L20.588 15.4703H17.2614C17.2468 15.4703 17.2176 15.4734 17.1738 15.4795C17.13 15.4856 17.1009 15.4886 17.0863 15.4886C16.7653 15.4886 16.4662 15.3728 16.189 15.1411C16.0868 15.0436 15.4011 14.3242 14.1317 12.983C14.0588 12.8976 13.9566 12.8184 13.8253 12.7452C13.767 12.9403 13.6904 13.2207 13.5955 13.5865C13.5007 13.9523 13.4314 14.2145 13.3876 14.373L13.322 14.6839C13.1761 15.1107 12.8697 15.3667 12.4028 15.4521L12.0964 15.4703H9.9516C8.7406 15.4703 7.53325 15.007 6.32954 14.0804C5.12584 13.1537 4.04251 11.9557 3.07955 10.4865C2.11658 9.01724 1.21928 7.30718 0.387626 5.35631C0.314674 5.1978 0.278198 5.021 0.278198 4.82591ZM13.4314 9.56287C13.125 9.56287 12.8478 9.49276 12.5997 9.35254C12.3517 9.21232 12.2277 9.02028 12.2277 8.77643V4.56986C12.2277 4.326 12.1547 4.15225 12.0088 4.04861C11.8629 3.94497 11.6076 3.89315 11.2428 3.89315L9.99537 3.92973C9.36798 3.92973 8.8938 4.02118 8.57281 4.20407C9.21479 4.46013 9.53577 4.87469 9.53577 5.44775V8.66669C9.50659 8.97151 9.36069 9.22452 9.09806 9.4257C8.83544 9.62688 8.54363 9.72747 8.22264 9.72747C7.78493 9.72747 7.44935 9.55068 7.21591 9.19708C6.07786 7.75832 5.23162 6.39271 4.67719 5.10026L4.48022 4.62473L1.56944 4.60644C1.37977 4.60644 1.27399 4.61559 1.2521 4.63388C1.23022 4.65217 1.21928 4.70399 1.21928 4.78934C1.21928 4.89907 1.23387 5.0149 1.26305 5.13683L1.72264 6.16104C2.94823 8.80691 4.2796 10.8919 5.71675 12.416C7.1539 13.9401 8.56552 14.7022 9.9516 14.7022H12.1402C12.2277 14.7022 12.2933 14.6809 12.3371 14.6382C12.3809 14.5955 12.4174 14.5132 12.4465 14.3913L12.4903 14.2084L12.9061 12.5989C13.0229 12.3794 13.125 12.2331 13.2125 12.16C13.373 12.0258 13.5627 11.9588 13.7816 11.9588C14.1317 11.9588 14.4892 12.1356 14.854 12.4892L16.7142 14.4644C16.8309 14.6229 16.955 14.7022 17.0863 14.7022H20.6974C21.1351 14.7022 21.354 14.6107 21.354 14.4279C21.354 14.3669 21.3321 14.3059 21.2883 14.245L18.1149 10.9346C17.8669 10.6785 17.7428 10.4042 17.7428 10.1116C17.7428 9.81892 17.8596 9.53848 18.093 9.27024C18.2827 9.02638 18.6511 8.62097 19.1982 8.05399C19.7454 7.48702 20.2232 6.95663 20.6317 6.46282C21.0403 5.969 21.3102 5.52091 21.4415 5.11854L21.5072 4.88078C21.4926 4.8564 21.4853 4.81677 21.4853 4.7619C21.4853 4.70703 21.478 4.66131 21.4634 4.62473H18.0274C17.8085 4.69789 17.6334 4.80762 17.5021 4.95394L17.3708 5.30144C17.006 6.14275 16.0504 7.4413 14.5038 9.19708C14.1974 9.44094 13.8399 9.56287 13.4314 9.56287Z" fill="#666666"/>
</g>
<defs>
<clipPath id="clip0_88_472">
<rect width="23" height="16" fill="white" transform="translate(0.208107 0.833252)"/>
</clipPath>
</defs>
</svg>
